<?xml version="1.0" encoding="us-ascii" standalone="no"?><svg xmlns="http://www.w3.org/2000/svg" xmlns:xlink="http://www.w3.org/1999/xlink" contentStyleType="text/css" height="609px" preserveAspectRatio="none" style="width:1330px;height:609px;background:#FFFFFF;" version="1.1" viewBox="0 0 1330 609" width="1330px" zoomAndPan="magnify"><defs/><g><rect fill="#FFFFFF" height="212.4609" style="stroke:#181818;stroke-width:1.0;" width="10" x="153.5" y="114.9609"/><rect fill="#FFFFFF" height="151.7578" style="stroke:#181818;stroke-width:1.0;" width="10" x="370.5" y="145.3125"/><rect fill="#FFFFFF" height="91.0547" style="stroke:#181818;stroke-width:1.0;" width="10" x="584.5" y="175.6641"/><rect fill="#FFFFFF" height="91.0547" style="stroke:#181818;stroke-width:1.0;" width="10" x="799" y="388.125"/><rect fill="#FFFFFF" height="30.3516" style="stroke:#181818;stroke-width:1.0;" width="10" x="960" y="206.0156"/><rect fill="#FFFFFF" height="30.3516" style="stroke:#181818;stroke-width:1.0;" width="10" x="960" y="418.4766"/><rect fill="#FFFFFF" height="151.7578" style="stroke:#181818;stroke-width:1.0;" width="10" x="1111.5" y="357.7734"/><rect fill="#FFFFFF" height="191.1094" style="stroke:#181818;stroke-width:1.0;" width="10" x="1260.5" y="327.4219"/><line style="stroke:#181818;stroke-width:0.5;stroke-dasharray:5.0,5.0;" x1="22" x2="22" y1="82.6094" y2="527.5313"/><line style="stroke:#181818;stroke-width:0.5;stroke-dasharray:5.0,5.0;" x1="158.5" x2="158.5" y1="82.6094" y2="527.5313"/><line style="stroke:#181818;stroke-width:0.5;stroke-dasharray:5.0,5.0;" x1="375.5" x2="375.5" y1="82.6094" y2="527.5313"/><line style="stroke:#181818;stroke-width:0.5;stroke-dasharray:5.0,5.0;" x1="589.5" x2="589.5" y1="82.6094" y2="527.5313"/><line style="stroke:#181818;stroke-width:0.5;stroke-dasharray:5.0,5.0;" x1="803.5" x2="803.5" y1="82.6094" y2="527.5313"/><line style="stroke:#181818;stroke-width:0.5;stroke-dasharray:5.0,5.0;" x1="964.5" x2="964.5" y1="82.6094" y2="527.5313"/><line style="stroke:#181818;stroke-width:0.5;stroke-dasharray:5.0,5.0;" x1="1116.5" x2="1116.5" y1="82.6094" y2="527.5313"/><line style="stroke:#181818;stroke-width:0.5;stroke-dasharray:5.0,5.0;" x1="1265.5" x2="1265.5" y1="82.6094" y2="527.5313"/><text fill="#000000" font-family="sans-serif" font-size="14" lengthAdjust="spacing" textLength="29" x="5" y="79.5332">User</text><ellipse cx="22.5" cy="13.5" fill="#E2E2F0" rx="8" ry="8" style="stroke:#181818;stroke-width:0.5;"/><path d="M22.5,21.5 L22.5,48.5 M9.5,29.5 L35.5,29.5 M22.5,48.5 L9.5,63.5 M22.5,48.5 L35.5,63.5 " fill="none" style="stroke:#181818;stroke-width:0.5;"/><text fill="#000000" font-family="sans-serif" font-size="14" lengthAdjust="spacing" textLength="29" x="5" y="541.0645">User</text><ellipse cx="22.5" cy="552.6406" fill="#E2E2F0" rx="8" ry="8" style="stroke:#181818;stroke-width:0.5;"/><path d="M22.5,560.6406 L22.5,587.6406 M9.5,568.6406 L35.5,568.6406 M22.5,587.6406 L9.5,602.6406 M22.5,587.6406 L35.5,602.6406 " fill="none" style="stroke:#181818;stroke-width:0.5;"/><rect fill="#E2E2F0" height="31.6094" rx="2.5" ry="2.5" style="stroke:#181818;stroke-width:0.5;" width="136" x="90.5" y="50"/><text fill="#000000" font-family="sans-serif" font-size="14" lengthAdjust="spacing" textLength="122" x="97.5" y="71.5332">TournamentScreen</text><rect fill="#E2E2F0" height="31.6094" rx="2.5" ry="2.5" style="stroke:#181818;stroke-width:0.5;" width="136" x="90.5" y="526.5313"/><text fill="#000000" font-family="sans-serif" font-size="14" lengthAdjust="spacing" textLength="122" x="97.5" y="548.0645">TournamentScreen</text><rect fill="#E2E2F0" height="31.6094" rx="2.5" ry="2.5" style="stroke:#181818;stroke-width:0.5;" width="158" x="296.5" y="50"/><text fill="#000000" font-family="sans-serif" font-size="14" lengthAdjust="spacing" textLength="144" x="303.5" y="71.5332">TournamentViewModel</text><rect fill="#E2E2F0" height="31.6094" rx="2.5" ry="2.5" style="stroke:#181818;stroke-width:0.5;" width="158" x="296.5" y="526.5313"/><text fill="#000000" font-family="sans-serif" font-size="14" lengthAdjust="spacing" textLength="144" x="303.5" y="548.0645">TournamentViewModel</text><rect fill="#E2E2F0" height="31.6094" rx="2.5" ry="2.5" style="stroke:#181818;stroke-width:0.5;" width="250" x="464.5" y="50"/><text fill="#000000" font-family="sans-serif" font-size="14" lengthAdjust="spacing" textLength="236" x="471.5" y="71.5332">CreateTournamentRankingsUseCase</text><rect fill="#E2E2F0" height="31.6094" rx="2.5" ry="2.5" style="stroke:#181818;stroke-width:0.5;" width="250" x="464.5" y="526.5313"/><text fill="#000000" font-family="sans-serif" font-size="14" lengthAdjust="spacing" textLength="236" x="471.5" y="548.0645">CreateTournamentRankingsUseCase</text><rect fill="#E2E2F0" height="31.6094" rx="2.5" ry="2.5" style="stroke:#181818;stroke-width:0.5;" width="159" x="724.5" y="50"/><text fill="#000000" font-family="sans-serif" font-size="14" lengthAdjust="spacing" textLength="145" x="731.5" y="71.5332">TournamentRepository</text><rect fill="#E2E2F0" height="31.6094" rx="2.5" ry="2.5" style="stroke:#181818;stroke-width:0.5;" width="159" x="724.5" y="526.5313"/><text fill="#000000" font-family="sans-serif" font-size="14" lengthAdjust="spacing" textLength="145" x="731.5" y="548.0645">TournamentRepository</text><text fill="#000000" font-family="sans-serif" font-size="14" lengthAdjust="spacing" textLength="137" x="893.5" y="79.5332">AppDatabase (Room)</text><path d="M947,29 C947,19 965,19 965,19 C965,19 983,19 983,29 L983,55 C983,65 965,65 965,65 C965,65 947,65 947,55 L947,29 " fill="#E2E2F0" style="stroke:#181818;stroke-width:1.5;"/><path d="M947,29 C947,39 965,39 965,39 C965,39 983,39 983,29 " fill="none" style="stroke:#181818;stroke-width:1.5;"/><text fill="#000000" font-family="sans-serif" font-size="14" lengthAdjust="spacing" textLength="137" x="893.5" y="541.0645">AppDatabase (Room)</text><path d="M947,554.1406 C947,544.1406 965,544.1406 965,544.1406 C965,544.1406 983,544.1406 983,554.1406 L983,580.1406 C983,590.1406 965,590.1406 965,590.1406 C965,590.1406 947,590.1406 947,580.1406 L947,554.1406 " fill="#E2E2F0" style="stroke:#181818;stroke-width:1.5;"/><path d="M947,554.1406 C947,564.1406 965,564.1406 965,564.1406 C965,564.1406 983,564.1406 983,554.1406 " fill="none" style="stroke:#181818;stroke-width:1.5;"/><rect fill="#E2E2F0" height="31.6094" rx="2.5" ry="2.5" style="stroke:#181818;stroke-width:0.5;" width="140" x="1046.5" y="50"/><text fill="#000000" font-family="sans-serif" font-size="14" lengthAdjust="spacing" textLength="126" x="1053.5" y="71.5332">RankingsViewModel</text><rect fill="#E2E2F0" height="31.6094" rx="2.5" ry="2.5" style="stroke:#181818;stroke-width:0.5;" width="140" x="1046.5" y="526.5313"/><text fill="#000000" font-family="sans-serif" font-size="14" lengthAdjust="spacing" textLength="126" x="1053.5" y="548.0645">RankingsViewModel</text><rect fill="#E2E2F0" height="31.6094" rx="2.5" ry="2.5" style="stroke:#181818;stroke-width:0.5;" width="118" x="1206.5" y="50"/><text fill="#000000" font-family="sans-serif" font-size="14" lengthAdjust="spacing" textLength="104" x="1213.5" y="71.5332">RankingsScreen</text><rect fill="#E2E2F0" height="31.6094" rx="2.5" ry="2.5" style="stroke:#181818;stroke-width:0.5;" width="118" x="1206.5" y="526.5313"/><text fill="#000000" font-family="sans-serif" font-size="14" lengthAdjust="spacing" textLength="104" x="1213.5" y="548.0645">RankingsScreen</text><rect fill="#FFFFFF" height="212.4609" style="stroke:#181818;stroke-width:1.0;" width="10" x="153.5" y="114.9609"/><rect fill="#FFFFFF" height="151.7578" style="stroke:#181818;stroke-width:1.0;" width="10" x="370.5" y="145.3125"/><rect fill="#FFFFFF" height="91.0547" style="stroke:#181818;stroke-width:1.0;" width="10" x="584.5" y="175.6641"/><rect fill="#FFFFFF" height="91.0547" style="stroke:#181818;stroke-width:1.0;" width="10" x="799" y="388.125"/><rect fill="#FFFFFF" height="30.3516" style="stroke:#181818;stroke-width:1.0;" width="10" x="960" y="206.0156"/><rect fill="#FFFFFF" height="30.3516" style="stroke:#181818;stroke-width:1.0;" width="10" x="960" y="418.4766"/><rect fill="#FFFFFF" height="151.7578" style="stroke:#181818;stroke-width:1.0;" width="10" x="1111.5" y="357.7734"/><rect fill="#FFFFFF" height="191.1094" style="stroke:#181818;stroke-width:1.0;" width="10" x="1260.5" y="327.4219"/><polygon fill="#181818" points="141.5,110.9609,151.5,114.9609,141.5,118.9609,145.5,114.9609" style="stroke:#181818;stroke-width:1.0;"/><line style="stroke:#181818;stroke-width:1.0;" x1="22.5" x2="147.5" y1="114.9609" y2="114.9609"/><text fill="#000000" font-family="sans-serif" font-size="13" font-weight="bold" lengthAdjust="spacing" textLength="7" x="29.5" y="110.1045">1</text><text fill="#000000" font-family="sans-serif" font-size="13" lengthAdjust="spacing" textLength="101" x="40.5" y="110.1045">Klickt "Rangliste"</text><polygon fill="#181818" points="358.5,141.3125,368.5,145.3125,358.5,149.3125,362.5,145.3125" style="stroke:#181818;stroke-width:1.0;"/><line style="stroke:#181818;stroke-width:1.0;" x1="163.5" x2="364.5" y1="145.3125" y2="145.3125"/><text fill="#000000" font-family="sans-serif" font-size="13" font-weight="bold" lengthAdjust="spacing" textLength="7" x="170.5" y="140.4561">2</text><text fill="#000000" font-family="sans-serif" font-size="13" lengthAdjust="spacing" textLength="177" x="181.5" y="140.4561">prepareRankingsAndNavigate()</text><polygon fill="#181818" points="572.5,171.6641,582.5,175.6641,572.5,179.6641,576.5,175.6641" style="stroke:#181818;stroke-width:1.0;"/><line style="stroke:#181818;stroke-width:1.0;" x1="380.5" x2="578.5" y1="175.6641" y2="175.6641"/><text fill="#000000" font-family="sans-serif" font-size="13" font-weight="bold" lengthAdjust="spacing" textLength="7" x="387.5" y="170.8076">3</text><text fill="#000000" font-family="sans-serif" font-size="13" lengthAdjust="spacing" textLength="109" x="398.5" y="170.8076">invoke(tournament)</text><polygon fill="#181818" points="948,202.0156,958,206.0156,948,210.0156,952,206.0156" style="stroke:#181818;stroke-width:1.0;"/><line style="stroke:#181818;stroke-width:1.0;" x1="594.5" x2="954" y1="206.0156" y2="206.0156"/><text fill="#000000" font-family="sans-serif" font-size="13" font-weight="bold" lengthAdjust="spacing" textLength="7" x="601.5" y="201.1592">4</text><text fill="#000000" font-family="sans-serif" font-size="13" lengthAdjust="spacing" textLength="185" x="612.5" y="201.1592">berechnet &amp; speichert Rankings</text><polygon fill="#181818" points="605.5,232.3672,595.5,236.3672,605.5,240.3672,601.5,236.3672" style="stroke:#181818;stroke-width:1.0;"/><line style="stroke:#181818;stroke-width:1.0;stroke-dasharray:2.0,2.0;" x1="599.5" x2="964" y1="236.3672" y2="236.3672"/><text fill="#000000" font-family="sans-serif" font-size="13" font-weight="bold" lengthAdjust="spacing" textLength="7" x="611.5" y="231.5107">5</text><text fill="#000000" font-family="sans-serif" font-size="13" lengthAdjust="spacing" textLength="49" x="622.5" y="231.5107">success</text><polygon fill="#181818" points="391.5,262.7188,381.5,266.7188,391.5,270.7188,387.5,266.7188" style="stroke:#181818;stroke-width:1.0;"/><line style="stroke:#181818;stroke-width:1.0;stroke-dasharray:2.0,2.0;" x1="385.5" x2="588.5" y1="266.7188" y2="266.7188"/><text fill="#000000" font-family="sans-serif" font-size="13" font-weight="bold" lengthAdjust="spacing" textLength="7" x="397.5" y="261.8623">6</text><text fill="#000000" font-family="sans-serif" font-size="13" lengthAdjust="spacing" textLength="49" x="408.5" y="261.8623">success</text><polygon fill="#181818" points="174.5,293.0703,164.5,297.0703,174.5,301.0703,170.5,297.0703" style="stroke:#181818;stroke-width:1.0;"/><line style="stroke:#181818;stroke-width:1.0;stroke-dasharray:2.0,2.0;" x1="168.5" x2="374.5" y1="297.0703" y2="297.0703"/><text fill="#000000" font-family="sans-serif" font-size="13" font-weight="bold" lengthAdjust="spacing" textLength="7" x="180.5" y="292.2139">7</text><text fill="#000000" font-family="sans-serif" font-size="13" lengthAdjust="spacing" textLength="71" x="191.5" y="292.2139">onNavigate()</text><polygon fill="#181818" points="1248.5,323.4219,1258.5,327.4219,1248.5,331.4219,1252.5,327.4219" style="stroke:#181818;stroke-width:1.0;"/><line style="stroke:#181818;stroke-width:1.0;" x1="158.5" x2="1254.5" y1="327.4219" y2="327.4219"/><text fill="#000000" font-family="sans-serif" font-size="13" font-weight="bold" lengthAdjust="spacing" textLength="7" x="165.5" y="322.5654">8</text><text fill="#000000" font-family="sans-serif" font-size="13" lengthAdjust="spacing" textLength="50" x="176.5" y="322.5654">&#171;render&#187;</text><polygon fill="#181818" points="1132.5,353.7734,1122.5,357.7734,1132.5,361.7734,1128.5,357.7734" style="stroke:#181818;stroke-width:1.0;"/><line style="stroke:#181818;stroke-width:1.0;" x1="1126.5" x2="1259.5" y1="357.7734" y2="357.7734"/><text fill="#000000" font-family="sans-serif" font-size="13" font-weight="bold" lengthAdjust="spacing" textLength="7" x="1138.5" y="352.917">9</text><text fill="#000000" font-family="sans-serif" font-size="13" lengthAdjust="spacing" textLength="109" x="1149.5" y="352.917">beobachtet uiState</text><polygon fill="#181818" points="820,384.125,810,388.125,820,392.125,816,388.125" style="stroke:#181818;stroke-width:1.0;"/><line style="stroke:#181818;stroke-width:1.0;" x1="814" x2="1110.5" y1="388.125" y2="388.125"/><text fill="#000000" font-family="sans-serif" font-size="13" font-weight="bold" lengthAdjust="spacing" textLength="14" x="826" y="383.2686">10</text><text fill="#000000" font-family="sans-serif" font-size="13" lengthAdjust="spacing" textLength="106" x="844" y="383.2686">observeRankings()</text><polygon fill="#181818" points="948,414.4766,958,418.4766,948,422.4766,952,418.4766" style="stroke:#181818;stroke-width:1.0;"/><line style="stroke:#181818;stroke-width:1.0;" x1="809" x2="954" y1="418.4766" y2="418.4766"/><text fill="#000000" font-family="sans-serif" font-size="13" font-weight="bold" lengthAdjust="spacing" textLength="14" x="816" y="413.6201">11</text><text fill="#000000" font-family="sans-serif" font-size="13" lengthAdjust="spacing" textLength="40" x="834" y="413.6201">query()</text><polygon fill="#181818" points="820,444.8281,810,448.8281,820,452.8281,816,448.8281" style="stroke:#181818;stroke-width:1.0;"/><line style="stroke:#181818;stroke-width:1.0;stroke-dasharray:2.0,2.0;" x1="814" x2="964" y1="448.8281" y2="448.8281"/><text fill="#000000" font-family="sans-serif" font-size="13" font-weight="bold" lengthAdjust="spacing" textLength="14" x="826" y="443.9717">12</text><text fill="#000000" font-family="sans-serif" font-size="13" lengthAdjust="spacing" textLength="71" x="844" y="443.9717">ranking data</text><polygon fill="#181818" points="1099.5,475.1797,1109.5,479.1797,1099.5,483.1797,1103.5,479.1797" style="stroke:#181818;stroke-width:1.0;"/><line style="stroke:#181818;stroke-width:1.0;stroke-dasharray:2.0,2.0;" x1="804" x2="1105.5" y1="479.1797" y2="479.1797"/><text fill="#000000" font-family="sans-serif" font-size="13" font-weight="bold" lengthAdjust="spacing" textLength="14" x="811" y="474.3232">13</text><text fill="#000000" font-family="sans-serif" font-size="13" lengthAdjust="spacing" textLength="92" x="829" y="474.3232">&#171;emit rankings&#187;</text><polygon fill="#181818" points="1248.5,505.5313,1258.5,509.5313,1248.5,513.5313,1252.5,509.5313" style="stroke:#181818;stroke-width:1.0;"/><line style="stroke:#181818;stroke-width:1.0;stroke-dasharray:2.0,2.0;" x1="1116.5" x2="1254.5" y1="509.5313" y2="509.5313"/><text fill="#000000" font-family="sans-serif" font-size="13" font-weight="bold" lengthAdjust="spacing" textLength="14" x="1123.5" y="504.6748">14</text><text fill="#000000" font-family="sans-serif" font-size="13" lengthAdjust="spacing" textLength="55" x="1141.5" y="504.6748">update UI</text><!--SRC=[TP9DRiCW44RtEGNoeaeMlK1bHKgSJLMb2_ApntYKeCH00RlAxJk0iN7Kx41wyytC0zOv9Rks1hDWt2b3JXQFcXadkD1CEb8SLMSaQq6w0pS0iY3CajFdA-Wiu7Ul6hW7xdZUpy7A07CmuPJ9cv0NYtqhPY66Lw_2AMXb1Sxv2A2_BXhcM8sbfDXelKkN9LMgNGLgjvt7fPRpIUdpf0dBjgQuzi8R8kzhL40-oDTTy5k4BtTX7HJUe-XnH-y86IHH0gBQ0EP3Yjt8vflrueBaSZKLUM6Uzmqgh1AoLpTOkb51ng8dP93SRP74DmH-bU386x4Q1B-2SIIrcwfG1_BlgO7jE0Th5mtaXCyT9_y7mTPXokH1oMoPZFFhH0aqS6LfG3PWrkjP6ceTBruo7Mf2-nfKpVZLuMQTE3XaCXZpQTJbFuEVfCRtwKVDkTlmNGAMdFrqO1uvCiaPuapC8VwNFJcAIUEOPGcjSAd0pZUChGTZKKMdcs7td3ll_m00]--></g></svg>